<?xml version="1.0" encoding="UTF-8" standalone="no"?>
<!-- Created with Inkscape (http://www.inkscape.org/) -->

<svg
   width="210mm"
   height="297mm"
   viewBox="0 0 210 297"
   version="1.1"
   id="svg1"
   xml:space="preserve"
   inkscape:version="1.4.3 (0d15f75, 2025-12-25)"
   sodipodi:docname="рисунок.svg"
   xmlns:inkscape="http://www.inkscape.org/namespaces/inkscape"
   xmlns:sodipodi="http://sodipodi.sourceforge.net/DTD/sodipodi-0.dtd"
   xmlns="http://www.w3.org/2000/svg"
   xmlns:svg="http://www.w3.org/2000/svg"><sodipodi:namedview
     id="namedview1"
     pagecolor="#ffffff"
     bordercolor="#000000"
     borderopacity="0.25"
     inkscape:showpageshadow="2"
     inkscape:pageopacity="0.0"
     inkscape:pagecheckerboard="0"
     inkscape:deskcolor="#d1d1d1"
     inkscape:document-units="mm"
     inkscape:zoom="0.72604517"
     inkscape:cx="396.66953"
     inkscape:cy="525.4494"
     inkscape:window-width="1920"
     inkscape:window-height="1017"
     inkscape:window-x="-8"
     inkscape:window-y="-8"
     inkscape:window-maximized="1"
     inkscape:current-layer="layer1" /><defs
     id="defs1"><marker
       style="overflow:visible"
       id="marker13"
       refX="0"
       refY="0"
       orient="auto"
       inkscape:stockid="Dot"
       markerWidth="3"
       markerHeight="3"
       viewBox="0 0 1 1"
       inkscape:isstock="true"
       inkscape:collect="always"
       preserveAspectRatio="xMidYMid"><path
         transform="scale(0.5)"
         style="fill:context-stroke;fill-rule:evenodd;stroke:none"
         d="M 5,0 C 5,2.76 2.76,5 0,5 -2.76,5 -5,2.76 -5,0 c 0,-2.76 2.3,-5 5,-5 2.76,0 5,2.24 5,5 z"
         sodipodi:nodetypes="sssss"
         id="path13" /></marker><marker
       style="overflow:visible"
       id="marker10"
       refX="0"
       refY="0"
       orient="auto"
       inkscape:stockid="Dot"
       markerWidth="1"
       markerHeight="1"
       viewBox="0 0 1 1"
       inkscape:isstock="true"
       inkscape:collect="always"
       preserveAspectRatio="xMidYMid"><path
         transform="scale(0.5)"
         style="fill:context-stroke;fill-rule:evenodd;stroke:none"
         d="M 5,0 C 5,2.76 2.76,5 0,5 -2.76,5 -5,2.76 -5,0 c 0,-2.76 2.3,-5 5,-5 2.76,0 5,2.24 5,5 z"
         sodipodi:nodetypes="sssss"
         id="path10" /></marker><marker
       style="overflow:visible"
       id="marker9"
       refX="0"
       refY="0"
       orient="auto"
       inkscape:stockid="Dot"
       markerWidth="3"
       markerHeight="3"
       viewBox="0 0 1 1"
       inkscape:isstock="true"
       inkscape:collect="always"
       preserveAspectRatio="xMidYMid"><path
         transform="scale(0.5)"
         style="fill:context-stroke;fill-rule:evenodd;stroke:none"
         d="M 5,0 C 5,2.76 2.76,5 0,5 -2.76,5 -5,2.76 -5,0 c 0,-2.76 2.3,-5 5,-5 2.76,0 5,2.24 5,5 z"
         sodipodi:nodetypes="sssss"
         id="path9" /></marker><marker
       style="overflow:visible"
       id="Dot"
       refX="0"
       refY="0"
       orient="auto"
       inkscape:stockid="Dot"
       markerWidth="3"
       markerHeight="3"
       viewBox="0 0 1 1"
       inkscape:isstock="true"
       inkscape:collect="always"
       preserveAspectRatio="xMidYMid"><path
         transform="scale(0.5)"
         style="fill:context-stroke;fill-rule:evenodd;stroke:none"
         d="M 5,0 C 5,2.76 2.76,5 0,5 -2.76,5 -5,2.76 -5,0 c 0,-2.76 2.3,-5 5,-5 2.76,0 5,2.24 5,5 z"
         sodipodi:nodetypes="sssss"
         id="path17" /></marker><marker
       style="overflow:visible"
       id="marker8"
       refX="0"
       refY="0"
       orient="auto"
       inkscape:stockid="Colored dot"
       markerWidth="3"
       markerHeight="3"
       viewBox="0 0 1 1"
       inkscape:isstock="true"
       inkscape:collect="always"
       preserveAspectRatio="xMidYMid"><path
         transform="scale(0.45)"
         style="fill:context-fill;fill-rule:evenodd;stroke:context-stroke;stroke-width:2"
         d="M 5,0 C 5,2.76 2.76,5 0,5 -2.76,5 -5,2.76 -5,0 c 0,-2.76 2.3,-5 5,-5 2.76,0 5,2.24 5,5 z"
         sodipodi:nodetypes="sssss"
         id="path8" /></marker></defs><g
     inkscape:label="Слой 1"
     inkscape:groupmode="layer"
     id="layer1"><g
       id="g1"
       transform="matrix(3.0132016e-4,0.26458316,-0.26458316,3.0132016e-4,153.13786,64.30726)"><line
         x1="0"
         y1="100"
         x2="30"
         y2="100"
         stroke="#000000"
         id="line1" /><rect
         x="30"
         y="70"
         width="140"
         height="60"
         fill="#ffffff"
         stroke="#000000"
         stroke-width="1"
         id="rect1" /><line
         x1="170"
         y1="100"
         x2="200"
         y2="100"
         stroke="#000000"
         id="line2" /></g><g
       id="g2"
       transform="matrix(0.4624098,0,0,0.26458334,64.636398,37.737571)"><line
         x1="0"
         y1="100"
         x2="30"
         y2="100"
         stroke="#000000"
         id="line1-0" /><line
         x1="30"
         y1="70"
         x2="30"
         y2="130"
         stroke="#000000"
         id="line2-9" /><line
         x1="40"
         y1="70"
         x2="40"
         y2="130"
         stroke="#000000"
         id="line3" /><line
         x1="40"
         y1="100"
         x2="70"
         y2="100"
         stroke="#000000"
         id="line4" /></g><path
       style="fill:#d35f8f;stroke:#000000;stroke-width:0.264999"
       d="m 97.005083,64.337241 29.674457,1.51e-4 v 0"
       id="path2" /><path
       style="fill:#000000;fill-opacity:1;stroke:#000000;stroke-width:0.264999;marker-end:url(#marker9)"
       d="m 126.73981,117.25402 -64.424472,1.5e-4"
       id="path5" /><path
       style="fill:#000000;fill-opacity:1;stroke:#000000;stroke-width:0.264999;marker-end:url(#Dot)"
       d="m 126.73981,117.25402 30.68841,1.5e-4"
       id="path6" /><path
       style="fill:#000000;fill-opacity:1;stroke:#000000;stroke-width:0.264999;marker-end:url(#marker8)"
       d="m 126.67954,64.337392 30.74868,-1.51e-4"
       id="path7" /><path
       style="fill:#000000;fill-opacity:1;stroke:#000000;stroke-width:0.264999"
       d="M 64.636398,64.195904 Z"
       id="path11" /><path
       style="fill:#000000;fill-opacity:1;stroke:#000000;stroke-width:0.264999;marker-end:url(#marker13)"
       d="M 71.572545,64.195904 H 64.636398"
       id="path12" /><ellipse
       style="fill:#000000;fill-opacity:1;stroke:#000000;stroke-width:0.264999"
       id="path14"
       cx="126.67954"
       cy="64.337395"
       rx="2e-06"
       ry="8.0000042e-09" /><ellipse
       style="fill:#000000;fill-opacity:1;stroke:#000000;stroke-width:0.264999"
       id="path15"
       cx="126.73981"
       cy="117.25402"
       rx="9.8400005e-07"
       ry="2.0079999e-06" /><circle
       style="fill:none;fill-opacity:1;stroke:#000000;stroke-width:1.065;stroke-dasharray:none"
       id="path16"
       cx="126.68407"
       cy="65.755219"
       r="2.5509202" /><circle
       style="fill:none;fill-opacity:1;stroke:#000000;stroke-width:1.065;stroke-dasharray:none"
       id="path16-4"
       cx="126.73529"
       cy="115.8362"
       r="2.5509202" /><text
       xml:space="preserve"
       style="font-size:16.9333px;writing-mode:lr-tb;direction:ltr;fill:none;fill-opacity:1;stroke:#000000;stroke-width:0.665;stroke-dasharray:none"
       x="103.67886"
       y="96.570549"
       id="text16"><tspan
         id="tspan16"
         style="font-size:16.9333px;stroke-width:0.665;stroke-dasharray:none"
         sodipodi:role="line"
         x="103.67886"
         y="96.570549">R</tspan></text><text
       xml:space="preserve"
       style="font-size:16.9333px;writing-mode:lr-tb;direction:ltr;fill:none;fill-opacity:1;stroke:#000000;stroke-width:0.665001;stroke-dasharray:none"
       x="149.04662"
       y="96.903046"
       id="text17"><tspan
         sodipodi:role="line"
         id="tspan17"
         style="stroke-width:0.665"
         x="149.04662"
         y="96.903046">V<tspan
   style="font-size:65%;baseline-shift:sub"
   id="tspan18">0</tspan></tspan></text><text
       xml:space="preserve"
       style="font-size:16.9333px;writing-mode:lr-tb;direction:ltr;fill:none;fill-opacity:1;stroke:#000000;stroke-width:0.665001;stroke-dasharray:none"
       x="62.648903"
       y="98.75705"
       id="text19"><tspan
         sodipodi:role="line"
         id="tspan19"
         style="stroke-width:0.665"
         x="62.648903"
         y="98.75705">V<tspan
   style="font-size:65%;baseline-shift:sub"
   id="tspan20">i</tspan></tspan></text><g
       id="g20"
       transform="matrix(0.26458333,0,0,0.26458333,73.823143,219.69085)"><line
         x1="0"
         y1="100"
         x2="200"
         y2="100"
         stroke="#000000"
         id="line1-5" /><circle
         cx="100"
         cy="100"
         r="50"
         fill="#ffffff"
         stroke="#000000"
         stroke-width="1"
         id="circle1" /><line
         x1="75"
         y1="55"
         x2="120"
         y2="145"
         stroke="#000000"
         id="line2-5" /><line
         x1="75"
         y1="145"
         x2="120"
         y2="55"
         stroke="#000000"
         id="line3-1" /></g><g
       id="g21"
       transform="matrix(-0.26458333,0,0,0.26458333,93.548567,158.56765)"
       style="stroke-width:1.00157;stroke-dasharray:none"><line
         x1="0"
         y1="100"
         x2="200"
         y2="100"
         stroke="#000000"
         id="line1-7"
         style="stroke-width:1.00157;stroke-dasharray:none" /><polygon
         points="80,75 80,125 140,100 "
         fill="none"
         stroke="#000000"
         stroke-width="1"
         id="polygon1"
         style="stroke-width:1.00157;stroke-dasharray:none" /><line
         x1="140"
         y1="75"
         x2="140"
         y2="125"
         stroke="#000000"
         id="line2-1"
         style="stroke-width:1.00157;stroke-dasharray:none" /></g><g
       id="g22"
       transform="matrix(0.26458333,0,0,0.26458333,130.99004,158.43515)"><line
         x1="0"
         y1="100"
         x2="30"
         y2="100"
         stroke="#000000"
         id="line1-1" /><line
         x1="30"
         y1="60"
         x2="30"
         y2="140"
         stroke="#000000"
         id="line2-52" /><line
         x1="40"
         y1="70"
         x2="40"
         y2="130"
         stroke="#000000"
         id="line3-7" /><line
         x1="40"
         y1="100"
         x2="70"
         y2="100"
         stroke="#000000"
         id="line4-6" /><text
         x="15"
         y="75"
         id="text4">+</text><text
         x="45"
         y="75"
         id="text5">|</text></g><path
       style="fill:none;fill-opacity:1;stroke:#000000;stroke-width:0.264999;stroke-dasharray:none"
       d="m 93.548567,185.02598 37.441473,-0.1325"
       id="path23" /><path
       style="fill:none;fill-opacity:1;stroke:#000000;stroke-width:0.264999;stroke-dasharray:none"
       d="m 149.51087,184.89348 12.29036,-0.13229"
       id="path24" /><path
       style="fill:none;fill-opacity:1;stroke:#000000;stroke-width:0.264999;stroke-dasharray:none"
       d="m 161.80123,184.76119 0.001,61.2557 v 0 l -35.06242,0.13229"
       id="path25" /><path
       style="fill:none;fill-opacity:1;stroke:#000000;stroke-width:0.264999;stroke-dasharray:none"
       d="m 40.631901,185.02598 v 60.99091"
       id="path26" /><path
       style="fill:none;fill-opacity:1;stroke:#000000;stroke-width:0.264999;stroke-dasharray:none"
       d="m 73.823141,246.14918 -33.19124,-0.13229"
       id="path27" /></g></svg>
